<?xml version="1.0" encoding="UTF-8" standalone="no"?>
<svg
   xmlns:dc="http://purl.org/dc/elements/1.1/"
   xmlns:cc="http://creativecommons.org/ns#"
   xmlns:rdf="http://www.w3.org/1999/02/22-rdf-syntax-ns#"
   xmlns:svg="http://www.w3.org/2000/svg"
   xmlns="http://www.w3.org/2000/svg"
   xmlns:sodipodi="http://sodipodi.sourceforge.net/DTD/sodipodi-0.dtd"
   xmlns:inkscape="http://www.inkscape.org/namespaces/inkscape"
   viewBox="0 0 400 400"
   version="1.1"
   id="svg8"
   sodipodi:docname="map-pin.svg"
   width="400"
   height="400"
   inkscape:version="0.92.5 (2060ec1f9f, 2020-04-08)">
  <metadata
     id="metadata14">
    <rdf:RDF>
      <cc:Work
         rdf:about="">
        <dc:format>image/svg+xml</dc:format>
        <dc:type
           rdf:resource="http://purl.org/dc/dcmitype/StillImage" />
        <dc:title></dc:title>
      </cc:Work>
    </rdf:RDF>
  </metadata>
  <defs
     id="defs12" />
  <sodipodi:namedview
     pagecolor="#ffffff"
     bordercolor="#666666"
     borderopacity="1"
     objecttolerance="10"
     gridtolerance="10"
     guidetolerance="10"
     inkscape:pageopacity="0"
     inkscape:pageshadow="2"
     inkscape:window-width="1920"
     inkscape:window-height="996"
     id="namedview10"
     showgrid="false"
     inkscape:zoom="0.78666667"
     inkscape:cx="150"
     inkscape:cy="150"
     inkscape:window-x="1366"
     inkscape:window-y="0"
     inkscape:window-maximized="1"
     inkscape:current-layer="g6" />
  <g
     transform="matrix(3.623757,0,0,3.835133,29.12832,38.448143)"
     id="g6"
     style="fill:#facc15">
    <ellipse
       cx="38.139652"
       cy="26.185022"
       rx="2.2809999"
       ry="2.1489999"
       id="ellipse2" />
    <path
       d="m 27.348654,41.960023 c -1.473,-0.576 -9.345,-2.622 -7.154,0.191 2.191,2.813 7.154,-0.191 7.154,-0.191 z m -9.069,4.46 c -0.452,-1.037 -3.398,-6.049 -3.713,-3.52 -0.315,2.529 3.713,3.52 3.713,3.52 z m 59.311,-2.583 c -0.453,-1.033 -3.398,-6.046 -3.713,-3.518 -0.315,2.528 3.713,3.518 3.713,3.518 z m -71.9160005,15.655 c 2.361,2.176 6.3230005,-1.228 6.3230005,-1.228 -1.393,-0.294 -8.6840005,-0.944 -6.3230005,1.228 z m 76.6930005,-21.195 c 0.215,-2.137 -3.146,1.433 -3.713,2.198 0,0 3.5,-0.059 3.713,-2.198 z m -73.5350005,11.46 c 2.0630005,7.608 14.7550005,5.718 14.7550005,5.718 -2.512,-2.433 -16.8190005,-13.327 -14.7550005,-5.718 z m 65.7070005,4.411 c -1.295,-8.027 -3.479,-16.025 -3.479,-21.098 0,-2.462 -0.357,-4.836 -1.02,-7.069 a 7.44,7.44 0 0 0 1.51,-1.149 c 2.623,-2.561 0.273,-3.01 -2.969,-2.721 1.303,-0.223 2.621,-0.89 3.809,-2.288 2.652,-3.126 -0.639,-3.04 -4.375,-2.191 1.117,-0.66 2.027,-1.768 2.436,-3.566 1.422,-6.2690002 -2.428,-3.821 -5.922,-0.726 1.111,-2.331 2.004,-6.0460002 -1.477,-8.8970002 -3.9,-3.193 -2.787,2.511 -1.393,6.9760002 -1.969,-3.7530002 -5.711,-8.8700002 -11.113,-7.7480002 -2.428,0.503 -2.667,1.576 -1.701,2.875 -2.863,-1.016 -5.957,-1.371 -7.893,0.6 -1.558,1.586 -0.541,2.502 1.559,3.0010002 -7.197,2.058 -12.967,7.755 -15.401,15.094 -0.042,0.017 -9.682,4.23 -7.894,7.981 l 1.784,-0.14 c 1.145,1.021 5.731,1.142 7.537,1.149 10.7,8.74 -38.985,53.591 33.245,46.812 6.879,-0.646 10.561,-3.822 12.318,-8.325 0.861,0.656 4.455,3.165 6.656,1.076 2.389,-2.266 -4.6,-1.635 -6.576,-1.277 1.752,-4.678 1.486,-10.746 0.584,-16.899 3.541,0.206 11.436,-0.019 13.027,-5.882 1.799,-6.626 -8.824,0.782 -13.252,4.412 z m -49.152,-23.414 a 0.78,0.78 0 0 1 0.559,0.223 c -0.022,0.261 -0.037,0.523 -0.05,0.788 a 0.813,0.813 0 0 1 -0.509,0.173 c -0.398,0 -1.209,0.325 -1.209,0 0,-0.325 0.811,-1.184 1.209,-1.184 z m 17.847,1.372 c -4.903,0 -8.877,-3.624 -8.877,-8.09 0,-4.466 3.974,-8.087 8.877,-8.087 4.903,0 8.879,3.622 8.879,8.087 0,4.465 -3.975,8.09 -8.879,8.09 z"
       id="path4"
       inkscape:connector-curvature="0" />
  </g>
</svg>
